<svg xmlns="http://www.w3.org/2000/svg" viewBox="0 0 751 365" width="751" height="365">
  <path d="M 80.0 272.0 L 81.0 348.0 L 101.0 349.0 L 103.0 346.0 L 104.0 333.0 L 236.0 333.0 L 269.0 337.0 L 285.0 341.0 L 300.0 347.0 L 334.0 352.0 L 428.0 351.0 L 449.0 347.0 L 477.0 338.0 L 514.0 333.0 L 646.0 333.0 L 648.0 335.0 L 647.0 347.0 L 649.0 349.0 L 667.0 349.0 L 670.0 347.0 L 669.0 271.0 L 546.0 271.0 L 507.0 303.0 L 487.0 316.0 L 472.0 320.0 L 439.0 323.0 L 312.0 323.0 L 286.0 321.0 L 270.0 318.0 L 260.0 314.0 L 248.0 306.0 L 205.0 271.0 Z M 522.0 314.0 L 538.0 301.0 L 646.0 301.0 L 648.0 311.0 L 646.0 315.0 Z M 103.0 303.0 L 105.0 301.0 L 213.0 301.0 L 229.0 314.0 L 104.0 315.0 Z M 504.0 187.0 L 512.0 197.0 L 528.0 209.0 L 564.0 220.0 L 584.0 228.0 L 587.0 227.0 L 587.0 207.0 L 585.0 205.0 Z M 247.0 187.0 L 166.0 205.0 L 163.0 207.0 L 163.0 226.0 L 165.0 228.0 L 223.0 209.0 L 238.0 197.0 Z M 515.0 157.0 L 515.0 176.0 L 519.0 179.0 L 585.0 179.0 L 587.0 177.0 L 587.0 155.0 L 584.0 153.0 L 524.0 153.0 L 517.0 154.0 Z M 163.0 156.0 L 163.0 176.0 L 166.0 179.0 L 230.0 179.0 L 236.0 177.0 L 237.0 175.0 L 237.0 157.0 L 234.0 154.0 L 166.0 153.0 Z M 626.0 152.0 L 617.0 157.0 L 611.0 163.0 L 605.0 177.0 L 604.0 253.0 L 687.0 254.0 L 691.0 259.0 L 691.0 350.0 L 703.0 350.0 L 719.0 346.0 L 726.0 342.0 L 732.0 336.0 L 736.0 329.0 L 738.0 321.0 L 738.0 189.0 L 734.0 173.0 L 729.0 165.0 L 722.0 158.0 L 711.0 152.0 L 700.0 149.0 L 645.0 148.0 Z M 127.0 153.0 L 118.0 150.0 L 103.0 148.0 L 54.0 148.0 L 41.0 151.0 L 31.0 156.0 L 21.0 165.0 L 17.0 171.0 L 12.0 186.0 L 12.0 323.0 L 18.0 336.0 L 27.0 344.0 L 37.0 348.0 L 48.0 350.0 L 59.0 349.0 L 59.0 259.0 L 63.0 254.0 L 146.0 253.0 L 145.0 177.0 L 139.0 163.0 Z M 393.0 122.0 L 386.0 127.0 L 382.0 136.0 L 382.0 292.0 L 386.0 301.0 L 389.0 304.0 L 396.0 307.0 L 407.0 307.0 L 417.0 303.0 L 427.0 309.0 L 438.0 309.0 L 453.0 303.0 L 460.0 306.0 L 472.0 307.0 L 487.0 302.0 L 497.0 293.0 L 500.0 287.0 L 501.0 273.0 L 498.0 266.0 L 492.0 260.0 L 482.0 257.0 L 479.0 252.0 L 484.0 248.0 L 496.0 252.0 L 506.0 262.0 L 510.0 271.0 L 516.0 262.0 L 519.0 249.0 L 516.0 231.0 L 510.0 221.0 L 501.0 214.0 L 499.0 218.0 L 490.0 227.0 L 478.0 233.0 L 460.0 233.0 L 452.0 230.0 L 449.0 227.0 L 448.0 223.0 L 451.0 220.0 L 455.0 220.0 L 462.0 224.0 L 471.0 225.0 L 479.0 223.0 L 488.0 217.0 L 495.0 206.0 L 497.0 196.0 L 495.0 184.0 L 491.0 176.0 L 482.0 167.0 L 471.0 162.0 L 469.0 171.0 L 462.0 181.0 L 465.0 187.0 L 461.0 191.0 L 458.0 191.0 L 452.0 187.0 L 440.0 187.0 L 433.0 189.0 L 426.0 193.0 L 417.0 203.0 L 415.0 210.0 L 411.0 214.0 L 408.0 214.0 L 405.0 209.0 L 413.0 194.0 L 420.0 187.0 L 430.0 181.0 L 440.0 178.0 L 454.0 177.0 L 460.0 170.0 L 462.0 156.0 L 457.0 142.0 L 451.0 136.0 L 440.0 131.0 L 429.0 130.0 L 426.0 131.0 L 428.0 135.0 L 428.0 140.0 L 435.0 141.0 L 438.0 144.0 L 438.0 146.0 L 436.0 148.0 L 428.0 149.0 L 420.0 160.0 L 416.0 161.0 L 412.0 157.0 L 419.0 145.0 L 419.0 136.0 L 416.0 129.0 L 406.0 122.0 Z M 406.0 239.0 L 410.0 239.0 L 417.0 253.0 L 426.0 259.0 L 433.0 260.0 L 439.0 253.0 L 443.0 253.0 L 445.0 255.0 L 445.0 259.0 L 440.0 265.0 L 449.0 275.0 L 454.0 285.0 L 455.0 293.0 L 452.0 296.0 L 447.0 294.0 L 442.0 280.0 L 436.0 273.0 L 420.0 266.0 L 409.0 257.0 L 403.0 245.0 L 403.0 242.0 Z M 363.0 124.0 L 352.0 121.0 L 335.0 122.0 L 298.0 137.0 L 292.0 141.0 L 280.0 155.0 L 277.0 163.0 L 276.0 172.0 L 263.0 180.0 L 255.0 189.0 L 250.0 202.0 L 250.0 210.0 L 238.0 223.0 L 233.0 233.0 L 231.0 242.0 L 231.0 253.0 L 234.0 265.0 L 243.0 281.0 L 264.0 300.0 L 276.0 305.0 L 289.0 306.0 L 297.0 311.0 L 306.0 310.0 L 310.0 308.0 L 313.0 304.0 L 314.0 295.0 L 312.0 291.0 L 306.0 287.0 L 295.0 287.0 L 286.0 295.0 L 277.0 294.0 L 266.0 288.0 L 263.0 282.0 L 265.0 278.0 L 274.0 271.0 L 317.0 270.0 L 322.0 277.0 L 327.0 279.0 L 335.0 279.0 L 343.0 273.0 L 344.0 262.0 L 342.0 258.0 L 337.0 254.0 L 328.0 253.0 L 318.0 259.0 L 277.0 259.0 L 269.0 261.0 L 262.0 265.0 L 253.0 274.0 L 245.0 263.0 L 242.0 252.0 L 242.0 244.0 L 244.0 236.0 L 251.0 225.0 L 263.0 238.0 L 276.0 243.0 L 315.0 243.0 L 321.0 241.0 L 331.0 234.0 L 337.0 227.0 L 341.0 217.0 L 347.0 214.0 L 353.0 206.0 L 353.0 199.0 L 351.0 195.0 L 345.0 190.0 L 335.0 189.0 L 327.0 194.0 L 325.0 198.0 L 325.0 207.0 L 330.0 214.0 L 325.0 223.0 L 319.0 229.0 L 309.0 233.0 L 282.0 233.0 L 270.0 229.0 L 265.0 224.0 L 262.0 218.0 L 261.0 205.0 L 265.0 195.0 L 276.0 187.0 L 281.0 200.0 L 288.0 209.0 L 290.0 216.0 L 294.0 220.0 L 298.0 222.0 L 306.0 222.0 L 310.0 220.0 L 315.0 213.0 L 314.0 203.0 L 311.0 199.0 L 304.0 196.0 L 299.0 196.0 L 296.0 198.0 L 293.0 198.0 L 291.0 196.0 L 287.0 185.0 L 288.0 165.0 L 293.0 156.0 L 299.0 150.0 L 305.0 146.0 L 311.0 145.0 L 318.0 155.0 L 314.0 164.0 L 316.0 172.0 L 320.0 176.0 L 325.0 178.0 L 334.0 177.0 L 341.0 170.0 L 341.0 160.0 L 336.0 154.0 L 328.0 151.0 L 322.0 140.0 L 325.0 137.0 L 335.0 133.0 L 354.0 132.0 L 360.0 138.0 L 360.0 296.0 L 367.0 305.0 L 371.0 306.0 L 371.0 135.0 L 369.0 130.0 Z M 300.0 295.0 L 302.0 295.0 L 305.0 298.0 L 301.0 303.0 L 297.0 300.0 L 297.0 297.0 Z M 332.0 263.0 L 334.0 265.0 L 334.0 268.0 L 330.0 271.0 L 326.0 266.0 L 329.0 263.0 Z M 300.0 206.0 L 303.0 206.0 L 305.0 208.0 L 305.0 211.0 L 303.0 213.0 L 300.0 213.0 L 298.0 211.0 L 298.0 208.0 Z M 338.0 198.0 L 340.0 198.0 L 343.0 201.0 L 343.0 204.0 L 339.0 207.0 L 335.0 204.0 L 335.0 201.0 Z M 327.0 162.0 L 330.0 162.0 L 332.0 164.0 L 332.0 166.0 L 329.0 169.0 L 327.0 169.0 L 324.0 166.0 Z M 485.0 101.0 L 486.0 105.0 L 491.0 111.0 L 505.0 117.0 L 555.0 117.0 L 558.0 114.0 L 558.0 103.0 L 556.0 101.0 Z M 192.0 114.0 L 195.0 117.0 L 245.0 117.0 L 258.0 112.0 L 266.0 102.0 L 194.0 101.0 L 192.0 103.0 Z M 432.0 42.0 L 437.0 47.0 L 445.0 60.0 L 451.0 79.0 L 451.0 85.0 L 453.0 87.0 L 572.0 87.0 L 574.0 85.0 L 574.0 44.0 L 571.0 41.0 Z M 176.0 85.0 L 178.0 87.0 L 298.0 87.0 L 301.0 72.0 L 305.0 61.0 L 318.0 42.0 L 179.0 41.0 L 176.0 44.0 Z M 327.0 15.0 L 328.0 31.0 L 338.0 28.0 L 365.0 27.0 L 367.0 36.0 L 364.0 40.0 L 351.0 42.0 L 337.0 48.0 L 330.0 53.0 L 323.0 61.0 L 318.0 70.0 L 314.0 87.0 L 315.0 112.0 L 357.0 107.0 L 390.0 107.0 L 432.0 113.0 L 435.0 112.0 L 435.0 79.0 L 433.0 72.0 L 427.0 61.0 L 415.0 49.0 L 405.0 44.0 L 385.0 40.0 L 383.0 38.0 L 384.0 27.0 L 403.0 27.0 L 422.0 31.0 L 422.0 14.0 L 405.0 12.0 L 343.0 12.0 L 331.0 13.0 Z M 332.0 81.0 L 337.0 70.0 L 343.0 64.0 L 352.0 59.0 L 360.0 57.0 L 390.0 57.0 L 398.0 59.0 L 410.0 67.0 L 417.0 79.0 L 418.0 94.0 L 416.0 96.0 L 389.0 92.0 L 357.0 92.0 L 333.0 95.0 Z" fill="#ffffff" fill-rule="evenodd"/>
</svg>
